<svg xmlns="http://www.w3.org/2000/svg" viewBox="0 0 128 128">
  <rect width="128" height="128" fill="#f38020" rx="20"/>
  <g fill="white">
    <!-- Cloud shape -->
    <path d="M64 35c-8.5 0-15.5 6.5-16.5 14.8C41.2 50.5 36 56.3 36 63.5c0 7.7 6.3 14 14 14h40c6.6 0 12-5.4 12-12 0-6.2-4.7-11.3-10.7-11.9C90.5 44.5 83.3 35 64 35z"/>
    <!-- Lightning bolt / flash symbol for "purge" -->
    <path d="M70 58h-8l4-10-8 15h6l-4 12z" fill="#f38020"/>
    <!-- Circular arrows for cache/refresh -->
    <g transform="translate(64, 85)">
      <path d="M-15,-5 a 15,15 0 1,1 20,0" fill="none" stroke="white" stroke-width="4" stroke-linecap="round"/>
      <polygon points="-16,-5 -16,-12 -22,-8" fill="white"/>
      <path d="M15,5 a 15,15 0 1,1 -20,0" fill="none" stroke="white" stroke-width="4" stroke-linecap="round"/>
      <polygon points="16,5 16,12 22,8" fill="white"/>
    </g>
  </g>
</svg>
